<mxfile host="app.diagrams.net" modified="2020-05-12T18:52:12.854Z" agent="5.0 (Windows NT 10.0; Win64; x64) AppleWebKit/537.36 (KHTML, like Gecko) Chrome/81.0.4044.138 Safari/537.36" etag="MffU1cydLAcc1ACw3jff" version="13.1.0" type="github">
  <diagram id="o4EiVnhbFgxZL6RKC9Z2" name="Page-1">
    <mxGraphModel dx="782" dy="469" grid="1" gridSize="10" guides="1" tooltips="1" connect="1" arrows="1" fold="1" page="1" pageScale="1" pageWidth="827" pageHeight="1169" math="0" shadow="0">
      <root>
        <mxCell id="0" />
        <mxCell id="1" parent="0" />
        <mxCell id="nG4vWBlCIbv7thtHOubb-1" value="" style="ellipse;html=1;shape=startState;fillColor=#000000;strokeColor=#ff0000;" vertex="1" parent="1">
          <mxGeometry x="384" y="20" width="30" height="30" as="geometry" />
        </mxCell>
        <mxCell id="nG4vWBlCIbv7thtHOubb-2" value="" style="edgeStyle=orthogonalEdgeStyle;html=1;verticalAlign=bottom;endArrow=open;endSize=8;strokeColor=#ff0000;" edge="1" source="nG4vWBlCIbv7thtHOubb-1" parent="1">
          <mxGeometry relative="1" as="geometry">
            <mxPoint x="399" y="110" as="targetPoint" />
          </mxGeometry>
        </mxCell>
        <mxCell id="nG4vWBlCIbv7thtHOubb-3" value="Go to Dashboard/ Client Birthdays&amp;nbsp;" style="rounded=1;whiteSpace=wrap;html=1;arcSize=40;fontColor=#000000;fillColor=#ffffc0;strokeColor=#ff0000;" vertex="1" parent="1">
          <mxGeometry x="340" y="110" width="120" height="40" as="geometry" />
        </mxCell>
        <mxCell id="nG4vWBlCIbv7thtHOubb-4" value="" style="edgeStyle=orthogonalEdgeStyle;html=1;verticalAlign=bottom;endArrow=open;endSize=8;strokeColor=#ff0000;" edge="1" source="nG4vWBlCIbv7thtHOubb-3" parent="1">
          <mxGeometry relative="1" as="geometry">
            <mxPoint x="400" y="210" as="targetPoint" />
          </mxGeometry>
        </mxCell>
        <mxCell id="nG4vWBlCIbv7thtHOubb-5" value="" style="rhombus;whiteSpace=wrap;html=1;fillColor=#ffffc0;strokeColor=#ff0000;" vertex="1" parent="1">
          <mxGeometry x="360" y="210" width="80" height="40" as="geometry" />
        </mxCell>
        <mxCell id="nG4vWBlCIbv7thtHOubb-6" value="" style="edgeStyle=orthogonalEdgeStyle;html=1;align=left;verticalAlign=bottom;endArrow=open;endSize=8;strokeColor=#ff0000;" edge="1" source="nG4vWBlCIbv7thtHOubb-5" parent="1">
          <mxGeometry x="-1" relative="1" as="geometry">
            <mxPoint x="460" y="130" as="targetPoint" />
            <Array as="points">
              <mxPoint x="540" y="230" />
              <mxPoint x="540" y="130" />
              <mxPoint x="460" y="130" />
            </Array>
          </mxGeometry>
        </mxCell>
        <mxCell id="nG4vWBlCIbv7thtHOubb-7" value="" style="edgeStyle=orthogonalEdgeStyle;html=1;align=left;verticalAlign=top;endArrow=open;endSize=8;strokeColor=#ff0000;" edge="1" source="nG4vWBlCIbv7thtHOubb-5" parent="1">
          <mxGeometry x="-1" relative="1" as="geometry">
            <mxPoint x="400" y="310" as="targetPoint" />
          </mxGeometry>
        </mxCell>
        <mxCell id="nG4vWBlCIbv7thtHOubb-8" value="No birthdays" style="text;html=1;align=center;verticalAlign=middle;resizable=0;points=[];autosize=1;" vertex="1" parent="1">
          <mxGeometry x="420" y="200" width="80" height="20" as="geometry" />
        </mxCell>
        <mxCell id="nG4vWBlCIbv7thtHOubb-12" value="Birthday&lt;br&gt;Clients" style="text;html=1;align=center;verticalAlign=middle;resizable=0;points=[];autosize=1;" vertex="1" parent="1">
          <mxGeometry x="340" y="255" width="60" height="30" as="geometry" />
        </mxCell>
        <mxCell id="nG4vWBlCIbv7thtHOubb-13" value="" style="rhombus;whiteSpace=wrap;html=1;fillColor=#ffffc0;strokeColor=#ff0000;" vertex="1" parent="1">
          <mxGeometry x="360" y="310" width="80" height="40" as="geometry" />
        </mxCell>
        <mxCell id="nG4vWBlCIbv7thtHOubb-14" value="Loyal Client" style="edgeStyle=orthogonalEdgeStyle;html=1;align=left;verticalAlign=bottom;endArrow=open;endSize=8;strokeColor=#ff0000;" edge="1" source="nG4vWBlCIbv7thtHOubb-13" parent="1">
          <mxGeometry x="-1" relative="1" as="geometry">
            <mxPoint x="540" y="330" as="targetPoint" />
          </mxGeometry>
        </mxCell>
        <mxCell id="nG4vWBlCIbv7thtHOubb-15" value="" style="edgeStyle=orthogonalEdgeStyle;html=1;align=left;verticalAlign=top;endArrow=open;endSize=8;strokeColor=#ff0000;" edge="1" source="nG4vWBlCIbv7thtHOubb-13" parent="1">
          <mxGeometry x="1" y="-110" relative="1" as="geometry">
            <mxPoint x="400" y="410" as="targetPoint" />
            <mxPoint x="100" y="110" as="offset" />
          </mxGeometry>
        </mxCell>
        <mxCell id="nG4vWBlCIbv7thtHOubb-16" value="Regular&amp;nbsp;&lt;br&gt;Client" style="text;html=1;align=center;verticalAlign=middle;resizable=0;points=[];autosize=1;" vertex="1" parent="1">
          <mxGeometry x="340" y="360" width="60" height="30" as="geometry" />
        </mxCell>
        <mxCell id="nG4vWBlCIbv7thtHOubb-17" value="Send 30%&lt;br&gt;&amp;nbsp;Discount Coupon" style="rounded=1;whiteSpace=wrap;html=1;arcSize=40;fontColor=#000000;fillColor=#ffffc0;strokeColor=#ff0000;" vertex="1" parent="1">
          <mxGeometry x="540" y="310" width="120" height="40" as="geometry" />
        </mxCell>
        <mxCell id="nG4vWBlCIbv7thtHOubb-18" value="" style="edgeStyle=orthogonalEdgeStyle;html=1;verticalAlign=bottom;endArrow=open;endSize=8;strokeColor=#ff0000;entryX=0.653;entryY=0.333;entryDx=0;entryDy=0;entryPerimeter=0;" edge="1" source="nG4vWBlCIbv7thtHOubb-17" parent="1" target="nG4vWBlCIbv7thtHOubb-21">
          <mxGeometry relative="1" as="geometry">
            <mxPoint x="600" y="410" as="targetPoint" />
          </mxGeometry>
        </mxCell>
        <mxCell id="nG4vWBlCIbv7thtHOubb-19" value="Send 10%&lt;br&gt;&amp;nbsp;Discount Coupon" style="rounded=1;whiteSpace=wrap;html=1;arcSize=40;fontColor=#000000;fillColor=#ffffc0;strokeColor=#ff0000;" vertex="1" parent="1">
          <mxGeometry x="339" y="410" width="120" height="40" as="geometry" />
        </mxCell>
        <mxCell id="nG4vWBlCIbv7thtHOubb-20" value="" style="edgeStyle=orthogonalEdgeStyle;html=1;verticalAlign=bottom;endArrow=open;endSize=8;strokeColor=#ff0000;entryX=0.25;entryY=0.5;entryDx=0;entryDy=0;entryPerimeter=0;exitX=0.5;exitY=1;exitDx=0;exitDy=0;" edge="1" source="nG4vWBlCIbv7thtHOubb-19" parent="1" target="nG4vWBlCIbv7thtHOubb-21">
          <mxGeometry relative="1" as="geometry">
            <mxPoint x="399" y="510" as="targetPoint" />
          </mxGeometry>
        </mxCell>
        <mxCell id="nG4vWBlCIbv7thtHOubb-21" value="" style="shape=line;html=1;strokeWidth=6;strokeColor=#ff0000;" vertex="1" parent="1">
          <mxGeometry x="470" y="530" width="200" height="10" as="geometry" />
        </mxCell>
        <mxCell id="nG4vWBlCIbv7thtHOubb-22" value="" style="edgeStyle=orthogonalEdgeStyle;html=1;verticalAlign=bottom;endArrow=open;endSize=8;strokeColor=#ff0000;" edge="1" source="nG4vWBlCIbv7thtHOubb-21" parent="1">
          <mxGeometry relative="1" as="geometry">
            <mxPoint x="570" y="610" as="targetPoint" />
          </mxGeometry>
        </mxCell>
        <mxCell id="nG4vWBlCIbv7thtHOubb-23" value="Send &quot;Happy Birthday&quot; Message" style="rounded=1;whiteSpace=wrap;html=1;arcSize=40;fontColor=#000000;fillColor=#ffffc0;strokeColor=#ff0000;" vertex="1" parent="1">
          <mxGeometry x="510" y="610" width="120" height="40" as="geometry" />
        </mxCell>
        <mxCell id="nG4vWBlCIbv7thtHOubb-24" value="" style="edgeStyle=orthogonalEdgeStyle;html=1;verticalAlign=bottom;endArrow=open;endSize=8;strokeColor=#ff0000;" edge="1" source="nG4vWBlCIbv7thtHOubb-23" parent="1">
          <mxGeometry relative="1" as="geometry">
            <mxPoint x="570" y="710" as="targetPoint" />
          </mxGeometry>
        </mxCell>
        <mxCell id="nG4vWBlCIbv7thtHOubb-25" value="" style="ellipse;html=1;shape=endState;fillColor=#000000;strokeColor=#ff0000;" vertex="1" parent="1">
          <mxGeometry x="555" y="710" width="30" height="30" as="geometry" />
        </mxCell>
      </root>
    </mxGraphModel>
  </diagram>
</mxfile>
